<mxfile host="app.diagrams.net" modified="2022-12-15T13:09:54.633Z" agent="5.0 (Windows NT 10.0; Win64; x64) AppleWebKit/537.36 (KHTML, like Gecko) Chrome/108.0.0.0 Safari/537.36" etag="t7JD6e4tWbnhfiBTKAUB" version="20.7.2" type="github" pages="4">
  <diagram name="Page-1" id="e7e014a7-5840-1c2e-5031-d8a46d1fe8dd">
    <mxGraphModel dx="1433" dy="432" grid="1" gridSize="10" guides="1" tooltips="1" connect="1" arrows="1" fold="1" page="1" pageScale="1" pageWidth="1169" pageHeight="826" background="none" math="0" shadow="0">
      <root>
        <mxCell id="0" />
        <mxCell id="1" parent="0" />
        <mxCell id="2" value="Thread 1" style="swimlane;whiteSpace=wrap" parent="1" vertex="1">
          <mxGeometry x="164.5" y="128" width="535.5" height="570" as="geometry">
            <mxRectangle x="164.5" y="128" width="90" height="30" as="alternateBounds" />
          </mxGeometry>
        </mxCell>
        <mxCell id="5" value="" style="ellipse;shape=startState;fillColor=#000000;strokeColor=#ff0000;" parent="2" vertex="1">
          <mxGeometry x="100" y="40" width="30" height="30" as="geometry" />
        </mxCell>
        <mxCell id="6" value="" style="edgeStyle=elbowEdgeStyle;elbow=horizontal;verticalAlign=bottom;endArrow=open;endSize=8;strokeColor=#FF0000;endFill=1;rounded=0" parent="2" source="5" target="7" edge="1">
          <mxGeometry x="100" y="40" as="geometry">
            <mxPoint x="115" y="110" as="targetPoint" />
          </mxGeometry>
        </mxCell>
        <mxCell id="Wlk02a7cY-0U1YLEiQaR-41" value="" style="edgeStyle=orthogonalEdgeStyle;rounded=0;orthogonalLoop=1;jettySize=auto;html=1;" edge="1" parent="2" source="7" target="5">
          <mxGeometry relative="1" as="geometry" />
        </mxCell>
        <mxCell id="7" value="idle" style="" parent="2" vertex="1">
          <mxGeometry x="60" y="110" width="110" height="50" as="geometry" />
        </mxCell>
        <mxCell id="8" value="user action" style="" parent="2" vertex="1">
          <mxGeometry x="60" y="220" width="110" height="50" as="geometry" />
        </mxCell>
        <mxCell id="9" value="" style="endArrow=open;strokeColor=#FF0000;endFill=1;rounded=0" parent="2" source="7" target="8" edge="1">
          <mxGeometry relative="1" as="geometry" />
        </mxCell>
        <mxCell id="10" value="post command" style="" parent="2" vertex="1">
          <mxGeometry x="60" y="325" width="110" height="50" as="geometry" />
        </mxCell>
        <mxCell id="11" value="" style="endArrow=open;strokeColor=#FF0000;endFill=1;rounded=0" parent="2" source="8" target="10" edge="1">
          <mxGeometry relative="1" as="geometry" />
        </mxCell>
        <mxCell id="12" value="" style="edgeStyle=elbowEdgeStyle;elbow=horizontal;strokeColor=#FF0000;endArrow=open;endFill=1;rounded=0" parent="2" source="10" target="7" edge="1">
          <mxGeometry width="100" height="100" relative="1" as="geometry">
            <mxPoint x="160" y="290" as="sourcePoint" />
            <mxPoint x="260" y="190" as="targetPoint" />
            <Array as="points">
              <mxPoint x="30" y="250" />
            </Array>
          </mxGeometry>
        </mxCell>
        <mxCell id="3" value="Thread 2" style="swimlane;whiteSpace=wrap" parent="1" vertex="1">
          <mxGeometry x="444.5" y="128" width="280" height="570" as="geometry" />
        </mxCell>
        <mxCell id="13" value="" style="ellipse;shape=startState;fillColor=#000000;strokeColor=#ff0000;" parent="3" vertex="1">
          <mxGeometry x="60" y="40" width="30" height="30" as="geometry" />
        </mxCell>
        <mxCell id="14" value="" style="edgeStyle=elbowEdgeStyle;elbow=horizontal;verticalAlign=bottom;endArrow=open;endSize=8;strokeColor=#FF0000;endFill=1;rounded=0" parent="3" source="13" target="15" edge="1">
          <mxGeometry x="40" y="20" as="geometry">
            <mxPoint x="55" y="90" as="targetPoint" />
          </mxGeometry>
        </mxCell>
        <mxCell id="15" value="idle" style="" parent="3" vertex="1">
          <mxGeometry x="20" y="110" width="110" height="50" as="geometry" />
        </mxCell>
        <mxCell id="16" value="check for &#xa;new commands" style="" parent="3" vertex="1">
          <mxGeometry x="20" y="220" width="110" height="50" as="geometry" />
        </mxCell>
        <mxCell id="17" value="" style="endArrow=open;strokeColor=#FF0000;endFill=1;rounded=0" parent="3" source="15" target="16" edge="1">
          <mxGeometry relative="1" as="geometry" />
        </mxCell>
        <mxCell id="18" value="command queue" style="" parent="3" vertex="1">
          <mxGeometry x="20" y="325" width="110" height="50" as="geometry" />
        </mxCell>
        <mxCell id="19" value="" style="endArrow=open;strokeColor=#FF0000;endFill=1;rounded=0" parent="3" source="16" target="18" edge="1">
          <mxGeometry relative="1" as="geometry" />
        </mxCell>
        <mxCell id="21" value="queue empty" style="rhombus;fillColor=#ffffc0;strokeColor=#ff0000;" parent="3" vertex="1">
          <mxGeometry x="150" y="225" width="80" height="40" as="geometry" />
        </mxCell>
        <mxCell id="22" value="yes" style="edgeStyle=elbowEdgeStyle;elbow=horizontal;align=left;verticalAlign=bottom;endArrow=open;endSize=8;strokeColor=#FF0000;exitX=0.5;exitY=0;endFill=1;rounded=0;entryX=0.75;entryY=0.5;entryPerimeter=0" parent="3" source="21" target="25" edge="1">
          <mxGeometry x="-1" relative="1" as="geometry">
            <mxPoint x="160" y="150" as="targetPoint" />
            <Array as="points">
              <mxPoint x="190" y="180" />
            </Array>
          </mxGeometry>
        </mxCell>
        <mxCell id="23" value="no" style="edgeStyle=elbowEdgeStyle;elbow=horizontal;align=left;verticalAlign=top;endArrow=open;endSize=8;strokeColor=#FF0000;endFill=1;rounded=0" parent="3" source="21" target="30" edge="1">
          <mxGeometry x="-1" relative="1" as="geometry">
            <mxPoint x="190" y="305" as="targetPoint" />
          </mxGeometry>
        </mxCell>
        <mxCell id="24" value="" style="endArrow=open;strokeColor=#FF0000;endFill=1;rounded=0" parent="3" source="16" target="21" edge="1">
          <mxGeometry relative="1" as="geometry" />
        </mxCell>
        <mxCell id="25" value="" style="shape=line;strokeWidth=6;strokeColor=#ff0000;rotation=90" parent="3" vertex="1">
          <mxGeometry x="130" y="127.5" width="50" height="15" as="geometry" />
        </mxCell>
        <mxCell id="26" value="" style="edgeStyle=elbowEdgeStyle;elbow=horizontal;verticalAlign=bottom;endArrow=open;endSize=8;strokeColor=#FF0000;endFill=1;rounded=0" parent="3" source="25" target="15" edge="1">
          <mxGeometry x="130" y="90" as="geometry">
            <mxPoint x="230" y="140" as="targetPoint" />
          </mxGeometry>
        </mxCell>
        <mxCell id="30" value="dispatch&#xa;command&#xa;worker thread" style="" parent="3" vertex="1">
          <mxGeometry x="140" y="325" width="110" height="50" as="geometry" />
        </mxCell>
        <mxCell id="31" value="critical&#xa;section" style="shape=note;whiteSpace=wrap;size=17" parent="3" vertex="1">
          <mxGeometry x="105" y="490" width="100" height="50" as="geometry" />
        </mxCell>
        <mxCell id="32" value="" style="endArrow=none;strokeColor=#FF0000;endFill=0;rounded=0;dashed=1" parent="3" source="18" target="31" edge="1">
          <mxGeometry relative="1" as="geometry" />
        </mxCell>
        <mxCell id="34" value="" style="whiteSpace=wrap;strokeColor=#FF0000;fillColor=#FF0000" parent="3" vertex="1">
          <mxGeometry x="245" y="395" width="5" height="45" as="geometry" />
        </mxCell>
        <mxCell id="41" value="" style="edgeStyle=elbowEdgeStyle;elbow=horizontal;entryX=0;entryY=0.5;strokeColor=#FF0000;endArrow=open;endFill=1;rounded=0" parent="3" source="30" target="34" edge="1">
          <mxGeometry width="100" height="100" relative="1" as="geometry">
            <mxPoint x="60" y="480" as="sourcePoint" />
            <mxPoint x="160" y="380" as="targetPoint" />
            <Array as="points">
              <mxPoint x="195" y="400" />
            </Array>
          </mxGeometry>
        </mxCell>
        <mxCell id="4" value="" style="swimlane;whiteSpace=wrap" parent="1" vertex="1">
          <mxGeometry x="724.5" y="128" width="280" height="570" as="geometry" />
        </mxCell>
        <mxCell id="33" value="process&#xa;command" style="" parent="4" vertex="1">
          <mxGeometry x="90" y="405" width="110" height="50" as="geometry" />
        </mxCell>
        <mxCell id="35" value="" style="edgeStyle=elbowEdgeStyle;elbow=horizontal;strokeColor=#FF0000;endArrow=open;endFill=1;rounded=0;entryX=0.25;entryY=0.5;entryPerimeter=0" parent="4" target="25" edge="1">
          <mxGeometry width="100" height="100" relative="1" as="geometry">
            <mxPoint x="-30" y="410" as="sourcePoint" />
            <mxPoint x="-120" y="120" as="targetPoint" />
            <Array as="points">
              <mxPoint x="-10" y="135" />
            </Array>
          </mxGeometry>
        </mxCell>
        <mxCell id="37" value="" style="edgeStyle=none;strokeColor=#FF0000;endArrow=open;endFill=1;rounded=0" parent="4" target="33" edge="1">
          <mxGeometry width="100" height="100" relative="1" as="geometry">
            <mxPoint x="-30" y="429.5" as="sourcePoint" />
            <mxPoint x="90" y="429.5" as="targetPoint" />
          </mxGeometry>
        </mxCell>
        <mxCell id="38" value="" style="ellipse;shape=endState;fillColor=#000000;strokeColor=#ff0000" parent="4" vertex="1">
          <mxGeometry x="130" y="500" width="30" height="30" as="geometry" />
        </mxCell>
        <mxCell id="39" value="" style="endArrow=open;strokeColor=#FF0000;endFill=1;rounded=0" parent="4" source="33" target="38" edge="1">
          <mxGeometry relative="1" as="geometry" />
        </mxCell>
        <mxCell id="20" value="" style="endArrow=open;strokeColor=#FF0000;endFill=1;rounded=0" parent="1" source="10" target="18" edge="1">
          <mxGeometry relative="1" as="geometry" />
        </mxCell>
      </root>
    </mxGraphModel>
  </diagram>
  <diagram id="lLqSlJYTxRQzdELtKdXL" name="Seite-2">
    <mxGraphModel dx="3284" dy="740" grid="1" gridSize="10" guides="1" tooltips="1" connect="1" arrows="1" fold="1" page="1" pageScale="1" pageWidth="827" pageHeight="1169" math="0" shadow="0">
      <root>
        <mxCell id="0" />
        <mxCell id="1" parent="0" />
        <mxCell id="mAppQXtUClqyni3PPgID-1" value="" style="ellipse;html=1;shape=endState;fillColor=#000000;strokeColor=#ff0000;" vertex="1" parent="1">
          <mxGeometry x="457" y="905" width="30" height="30" as="geometry" />
        </mxCell>
        <mxCell id="jfXDOy4P60CIgxOzhu7r-2" value="" style="edgeStyle=orthogonalEdgeStyle;rounded=0;orthogonalLoop=1;jettySize=auto;html=1;" edge="1" parent="1" source="d4ReBGDbto-Ixa4NavhL-1" target="jfXDOy4P60CIgxOzhu7r-3">
          <mxGeometry relative="1" as="geometry">
            <mxPoint x="275" y="85" as="targetPoint" />
          </mxGeometry>
        </mxCell>
        <mxCell id="d4ReBGDbto-Ixa4NavhL-1" value="" style="ellipse;shape=startState;fillColor=#000000;strokeColor=#ff0000;" vertex="1" parent="1">
          <mxGeometry x="90" y="70" width="30" height="30" as="geometry" />
        </mxCell>
        <mxCell id="RZpF_i0DyHVoWQNtt5jg-4" style="edgeStyle=orthogonalEdgeStyle;rounded=0;orthogonalLoop=1;jettySize=auto;html=1;entryX=0.471;entryY=0.667;entryDx=0;entryDy=0;entryPerimeter=0;" edge="1" parent="1" source="jfXDOy4P60CIgxOzhu7r-3" target="RZpF_i0DyHVoWQNtt5jg-3">
          <mxGeometry relative="1" as="geometry" />
        </mxCell>
        <mxCell id="jfXDOy4P60CIgxOzhu7r-3" value="Kundenauftrag" style="rounded=1;whiteSpace=wrap;html=1;" vertex="1" parent="1">
          <mxGeometry x="276" y="55" width="120" height="60" as="geometry" />
        </mxCell>
        <mxCell id="RZpF_i0DyHVoWQNtt5jg-17" style="edgeStyle=orthogonalEdgeStyle;rounded=0;orthogonalLoop=1;jettySize=auto;html=1;entryX=0;entryY=0.5;entryDx=0;entryDy=0;" edge="1" parent="1" source="jfXDOy4P60CIgxOzhu7r-8" target="mAppQXtUClqyni3PPgID-1">
          <mxGeometry relative="1" as="geometry" />
        </mxCell>
        <mxCell id="jfXDOy4P60CIgxOzhu7r-8" value="Ware versenden" style="rounded=1;whiteSpace=wrap;html=1;fillColor=rgb(255, 255, 255);strokeColor=rgb(0, 0, 0);fontColor=rgb(0, 0, 0);" vertex="1" parent="1">
          <mxGeometry x="250" y="890" width="120" height="60" as="geometry" />
        </mxCell>
        <mxCell id="jfXDOy4P60CIgxOzhu7r-17" value="Ware verfügbar" style="edgeStyle=orthogonalEdgeStyle;rounded=0;orthogonalLoop=1;jettySize=auto;html=1;" edge="1" parent="1" target="jfXDOy4P60CIgxOzhu7r-14">
          <mxGeometry x="-0.738" relative="1" as="geometry">
            <mxPoint x="342" y="246" as="sourcePoint" />
            <mxPoint x="196.00000000000045" y="772" as="targetPoint" />
            <mxPoint as="offset" />
          </mxGeometry>
        </mxCell>
        <mxCell id="jfXDOy4P60CIgxOzhu7r-20" value="Ware nicht verfügbar" style="edgeStyle=orthogonalEdgeStyle;rounded=0;orthogonalLoop=1;jettySize=auto;html=1;" edge="1" parent="1" target="jfXDOy4P60CIgxOzhu7r-19">
          <mxGeometry relative="1" as="geometry">
            <mxPoint x="422" y="246" as="sourcePoint" />
          </mxGeometry>
        </mxCell>
        <mxCell id="jfXDOy4P60CIgxOzhu7r-13" value="" style="rhombus;whiteSpace=wrap;html=1;fillColor=rgb(255, 255, 255);strokeColor=rgb(0, 0, 0);fontColor=rgb(0, 0, 0);rounded=1;" vertex="1" parent="1">
          <mxGeometry x="341" y="206" width="80" height="80" as="geometry" />
        </mxCell>
        <mxCell id="RZpF_i0DyHVoWQNtt5jg-12" style="edgeStyle=orthogonalEdgeStyle;rounded=0;orthogonalLoop=1;jettySize=auto;html=1;entryX=0.75;entryY=0.5;entryDx=0;entryDy=0;entryPerimeter=0;" edge="1" parent="1" source="jfXDOy4P60CIgxOzhu7r-14" target="RZpF_i0DyHVoWQNtt5jg-11">
          <mxGeometry relative="1" as="geometry" />
        </mxCell>
        <mxCell id="jfXDOy4P60CIgxOzhu7r-14" value="Ware verpacken" style="rounded=1;whiteSpace=wrap;html=1;fillColor=rgb(255, 255, 255);strokeColor=rgb(0, 0, 0);fontColor=rgb(0, 0, 0);" vertex="1" parent="1">
          <mxGeometry x="190" y="742" width="120" height="58" as="geometry" />
        </mxCell>
        <mxCell id="jfXDOy4P60CIgxOzhu7r-30" value="" style="edgeStyle=orthogonalEdgeStyle;rounded=0;orthogonalLoop=1;jettySize=auto;html=1;" edge="1" parent="1" source="jfXDOy4P60CIgxOzhu7r-19" target="jfXDOy4P60CIgxOzhu7r-29">
          <mxGeometry relative="1" as="geometry" />
        </mxCell>
        <mxCell id="jfXDOy4P60CIgxOzhu7r-19" value="Material aus Lager entnehmen" style="whiteSpace=wrap;html=1;fillColor=rgb(255, 255, 255);strokeColor=rgb(0, 0, 0);fontColor=rgb(0, 0, 0);rounded=1;" vertex="1" parent="1">
          <mxGeometry x="467" y="294" width="120" height="60" as="geometry" />
        </mxCell>
        <mxCell id="jfXDOy4P60CIgxOzhu7r-32" value="" style="edgeStyle=orthogonalEdgeStyle;rounded=0;orthogonalLoop=1;jettySize=auto;html=1;" edge="1" parent="1" source="jfXDOy4P60CIgxOzhu7r-29" target="jfXDOy4P60CIgxOzhu7r-31">
          <mxGeometry relative="1" as="geometry" />
        </mxCell>
        <mxCell id="jfXDOy4P60CIgxOzhu7r-29" value="Taschenlampe herstellen" style="whiteSpace=wrap;html=1;fillColor=rgb(255, 255, 255);strokeColor=rgb(0, 0, 0);fontColor=rgb(0, 0, 0);rounded=1;" vertex="1" parent="1">
          <mxGeometry x="467" y="390" width="120" height="60" as="geometry" />
        </mxCell>
        <mxCell id="jfXDOy4P60CIgxOzhu7r-34" value="Sonderanpassung&lt;br&gt;" style="edgeStyle=orthogonalEdgeStyle;rounded=0;orthogonalLoop=1;jettySize=auto;html=1;" edge="1" parent="1" source="jfXDOy4P60CIgxOzhu7r-31" target="jfXDOy4P60CIgxOzhu7r-33">
          <mxGeometry x="-0.5" relative="1" as="geometry">
            <Array as="points">
              <mxPoint x="457" y="524" />
              <mxPoint x="457" y="524" />
            </Array>
            <mxPoint as="offset" />
          </mxGeometry>
        </mxCell>
        <mxCell id="jfXDOy4P60CIgxOzhu7r-36" value="keine Sonderanpassung" style="edgeStyle=orthogonalEdgeStyle;rounded=0;orthogonalLoop=1;jettySize=auto;html=1;" edge="1" parent="1" source="jfXDOy4P60CIgxOzhu7r-31" target="jfXDOy4P60CIgxOzhu7r-35">
          <mxGeometry x="-0.4222" relative="1" as="geometry">
            <mxPoint y="-1" as="offset" />
          </mxGeometry>
        </mxCell>
        <mxCell id="jfXDOy4P60CIgxOzhu7r-31" value="" style="rhombus;whiteSpace=wrap;html=1;fillColor=rgb(255, 255, 255);strokeColor=rgb(0, 0, 0);fontColor=rgb(0, 0, 0);rounded=1;" vertex="1" parent="1">
          <mxGeometry x="487" y="484" width="80" height="80" as="geometry" />
        </mxCell>
        <mxCell id="jfXDOy4P60CIgxOzhu7r-39" style="edgeStyle=orthogonalEdgeStyle;rounded=0;orthogonalLoop=1;jettySize=auto;html=1;" edge="1" parent="1" source="jfXDOy4P60CIgxOzhu7r-33" target="jfXDOy4P60CIgxOzhu7r-35">
          <mxGeometry relative="1" as="geometry" />
        </mxCell>
        <mxCell id="jfXDOy4P60CIgxOzhu7r-33" value="Text gravieren" style="whiteSpace=wrap;html=1;fillColor=rgb(255, 255, 255);strokeColor=rgb(0, 0, 0);fontColor=rgb(0, 0, 0);rounded=1;" vertex="1" parent="1">
          <mxGeometry x="286" y="624" width="120" height="60" as="geometry" />
        </mxCell>
        <mxCell id="jfXDOy4P60CIgxOzhu7r-41" value="" style="edgeStyle=orthogonalEdgeStyle;rounded=0;orthogonalLoop=1;jettySize=auto;html=1;" edge="1" parent="1" source="jfXDOy4P60CIgxOzhu7r-35" target="jfXDOy4P60CIgxOzhu7r-40">
          <mxGeometry relative="1" as="geometry">
            <mxPoint x="527" y="711" as="targetPoint" />
          </mxGeometry>
        </mxCell>
        <mxCell id="jfXDOy4P60CIgxOzhu7r-35" value="Qualität prüfen" style="whiteSpace=wrap;html=1;fillColor=rgb(255, 255, 255);strokeColor=rgb(0, 0, 0);fontColor=rgb(0, 0, 0);rounded=1;" vertex="1" parent="1">
          <mxGeometry x="467" y="624" width="120" height="60" as="geometry" />
        </mxCell>
        <mxCell id="jfXDOy4P60CIgxOzhu7r-46" value="Ware nicht in Ordnung" style="edgeStyle=orthogonalEdgeStyle;rounded=0;orthogonalLoop=1;jettySize=auto;html=1;" edge="1" parent="1" source="jfXDOy4P60CIgxOzhu7r-40" target="jfXDOy4P60CIgxOzhu7r-45">
          <mxGeometry x="-0.6296" relative="1" as="geometry">
            <mxPoint as="offset" />
          </mxGeometry>
        </mxCell>
        <mxCell id="jfXDOy4P60CIgxOzhu7r-48" value="Ware in Ordnung" style="edgeStyle=orthogonalEdgeStyle;rounded=0;orthogonalLoop=1;jettySize=auto;html=1;entryX=1.009;entryY=0.5;entryDx=0;entryDy=0;entryPerimeter=0;" edge="1" parent="1" source="jfXDOy4P60CIgxOzhu7r-40" target="jfXDOy4P60CIgxOzhu7r-14">
          <mxGeometry relative="1" as="geometry">
            <mxPoint x="261.03999999999996" y="772" as="targetPoint" />
          </mxGeometry>
        </mxCell>
        <mxCell id="jfXDOy4P60CIgxOzhu7r-40" value="" style="rhombus;whiteSpace=wrap;html=1;fillColor=rgb(255, 255, 255);strokeColor=rgb(0, 0, 0);fontColor=rgb(0, 0, 0);rounded=1;" vertex="1" parent="1">
          <mxGeometry x="487" y="732" width="80" height="80" as="geometry" />
        </mxCell>
        <mxCell id="jfXDOy4P60CIgxOzhu7r-49" style="edgeStyle=orthogonalEdgeStyle;rounded=0;orthogonalLoop=1;jettySize=auto;html=1;" edge="1" parent="1" source="jfXDOy4P60CIgxOzhu7r-45">
          <mxGeometry relative="1" as="geometry">
            <mxPoint x="586" y="325" as="targetPoint" />
            <Array as="points">
              <mxPoint x="701" y="325" />
              <mxPoint x="588" y="325" />
            </Array>
          </mxGeometry>
        </mxCell>
        <mxCell id="jfXDOy4P60CIgxOzhu7r-45" value="Produkt verwerten" style="whiteSpace=wrap;html=1;fillColor=rgb(255, 255, 255);strokeColor=rgb(0, 0, 0);fontColor=rgb(0, 0, 0);rounded=1;" vertex="1" parent="1">
          <mxGeometry x="641" y="540" width="120" height="60" as="geometry" />
        </mxCell>
        <mxCell id="RZpF_i0DyHVoWQNtt5jg-7" style="edgeStyle=orthogonalEdgeStyle;rounded=0;orthogonalLoop=1;jettySize=auto;html=1;exitX=0.25;exitY=0.5;exitDx=0;exitDy=0;exitPerimeter=0;" edge="1" parent="1" source="RZpF_i0DyHVoWQNtt5jg-3" target="RZpF_i0DyHVoWQNtt5jg-5">
          <mxGeometry relative="1" as="geometry">
            <Array as="points">
              <mxPoint x="305" y="170" />
              <mxPoint x="10" y="170" />
            </Array>
          </mxGeometry>
        </mxCell>
        <mxCell id="RZpF_i0DyHVoWQNtt5jg-9" style="edgeStyle=orthogonalEdgeStyle;rounded=0;orthogonalLoop=1;jettySize=auto;html=1;entryX=0.5;entryY=0;entryDx=0;entryDy=0;" edge="1" parent="1" source="RZpF_i0DyHVoWQNtt5jg-3" target="jfXDOy4P60CIgxOzhu7r-13">
          <mxGeometry relative="1" as="geometry" />
        </mxCell>
        <mxCell id="RZpF_i0DyHVoWQNtt5jg-3" value="" style="shape=line;strokeWidth=6;strokeColor=#000000;rotation=0;" vertex="1" parent="1">
          <mxGeometry x="270" y="140" width="140" height="15" as="geometry" />
        </mxCell>
        <mxCell id="RZpF_i0DyHVoWQNtt5jg-14" style="edgeStyle=orthogonalEdgeStyle;rounded=0;orthogonalLoop=1;jettySize=auto;html=1;entryX=0.25;entryY=0.5;entryDx=0;entryDy=0;entryPerimeter=0;" edge="1" parent="1" source="RZpF_i0DyHVoWQNtt5jg-5" target="RZpF_i0DyHVoWQNtt5jg-11">
          <mxGeometry relative="1" as="geometry">
            <Array as="points">
              <mxPoint x="10" y="820" />
              <mxPoint x="180" y="820" />
              <mxPoint x="180" y="845" />
            </Array>
          </mxGeometry>
        </mxCell>
        <mxCell id="RZpF_i0DyHVoWQNtt5jg-5" value="Rechnungsstellung" style="rounded=1;whiteSpace=wrap;html=1;fillColor=rgb(255, 255, 255);strokeColor=rgb(0, 0, 0);fontColor=rgb(0, 0, 0);" vertex="1" parent="1">
          <mxGeometry x="-50" y="230" width="120" height="60" as="geometry" />
        </mxCell>
        <mxCell id="RZpF_i0DyHVoWQNtt5jg-16" style="edgeStyle=orthogonalEdgeStyle;rounded=0;orthogonalLoop=1;jettySize=auto;html=1;entryX=-0.01;entryY=0.458;entryDx=0;entryDy=0;entryPerimeter=0;" edge="1" parent="1" source="RZpF_i0DyHVoWQNtt5jg-11" target="jfXDOy4P60CIgxOzhu7r-8">
          <mxGeometry relative="1" as="geometry" />
        </mxCell>
        <mxCell id="RZpF_i0DyHVoWQNtt5jg-11" value="" style="shape=line;strokeWidth=6;strokeColor=#000000;rotation=0;" vertex="1" parent="1">
          <mxGeometry x="146" y="840" width="140" height="50" as="geometry" />
        </mxCell>
        <mxCell id="6eZvCZ7wfjj5Axph5ngn-2" style="edgeStyle=orthogonalEdgeStyle;rounded=0;orthogonalLoop=1;jettySize=auto;html=1;entryX=1.007;entryY=0.539;entryDx=0;entryDy=0;entryPerimeter=0;" edge="1" parent="1" source="6eZvCZ7wfjj5Axph5ngn-1" target="jfXDOy4P60CIgxOzhu7r-3">
          <mxGeometry relative="1" as="geometry">
            <mxPoint x="440" y="30" as="targetPoint" />
          </mxGeometry>
        </mxCell>
        <mxCell id="6eZvCZ7wfjj5Axph5ngn-1" value="Bestellsystem" style="shape=note;whiteSpace=wrap;size=17" vertex="1" parent="1">
          <mxGeometry x="500" y="30" width="100" height="50" as="geometry" />
        </mxCell>
      </root>
    </mxGraphModel>
  </diagram>
  <diagram name="Kopie von Seite-2" id="5CHqHZEcFoZwMVitzoGX">
    <mxGraphModel dx="3284" dy="740" grid="1" gridSize="10" guides="1" tooltips="1" connect="1" arrows="1" fold="1" page="1" pageScale="1" pageWidth="827" pageHeight="1169" math="0" shadow="0">
      <root>
        <mxCell id="_cRre706j1nTcXRoJ5YE-0" />
        <mxCell id="_cRre706j1nTcXRoJ5YE-1" parent="_cRre706j1nTcXRoJ5YE-0" />
        <mxCell id="_cRre706j1nTcXRoJ5YE-2" value="" style="ellipse;html=1;shape=endState;fillColor=#000000;strokeColor=#ff0000;" vertex="1" parent="_cRre706j1nTcXRoJ5YE-1">
          <mxGeometry x="376" y="1034" width="30" height="30" as="geometry" />
        </mxCell>
        <mxCell id="_cRre706j1nTcXRoJ5YE-3" value="" style="edgeStyle=orthogonalEdgeStyle;rounded=0;orthogonalLoop=1;jettySize=auto;html=1;" edge="1" parent="_cRre706j1nTcXRoJ5YE-1" source="_cRre706j1nTcXRoJ5YE-4" target="_cRre706j1nTcXRoJ5YE-6">
          <mxGeometry relative="1" as="geometry">
            <mxPoint x="275" y="85" as="targetPoint" />
          </mxGeometry>
        </mxCell>
        <mxCell id="_cRre706j1nTcXRoJ5YE-4" value="" style="ellipse;shape=startState;fillColor=#000000;strokeColor=#ff0000;" vertex="1" parent="_cRre706j1nTcXRoJ5YE-1">
          <mxGeometry x="90" y="70" width="30" height="30" as="geometry" />
        </mxCell>
        <mxCell id="_cRre706j1nTcXRoJ5YE-5" style="edgeStyle=orthogonalEdgeStyle;rounded=0;orthogonalLoop=1;jettySize=auto;html=1;entryX=0.471;entryY=0.667;entryDx=0;entryDy=0;entryPerimeter=0;" edge="1" parent="_cRre706j1nTcXRoJ5YE-1" source="_cRre706j1nTcXRoJ5YE-6" target="_cRre706j1nTcXRoJ5YE-32">
          <mxGeometry relative="1" as="geometry" />
        </mxCell>
        <mxCell id="_cRre706j1nTcXRoJ5YE-6" value="Kundenauftrag" style="rounded=1;whiteSpace=wrap;html=1;" vertex="1" parent="_cRre706j1nTcXRoJ5YE-1">
          <mxGeometry x="276" y="55" width="120" height="60" as="geometry" />
        </mxCell>
        <mxCell id="_cRre706j1nTcXRoJ5YE-7" style="edgeStyle=orthogonalEdgeStyle;rounded=0;orthogonalLoop=1;jettySize=auto;html=1;entryX=0;entryY=0.5;entryDx=0;entryDy=0;" edge="1" parent="_cRre706j1nTcXRoJ5YE-1" source="_cRre706j1nTcXRoJ5YE-8" target="_cRre706j1nTcXRoJ5YE-2">
          <mxGeometry relative="1" as="geometry" />
        </mxCell>
        <mxCell id="_cRre706j1nTcXRoJ5YE-8" value="Ware versenden" style="rounded=1;whiteSpace=wrap;html=1;fillColor=rgb(255, 255, 255);strokeColor=rgb(0, 0, 0);fontColor=rgb(0, 0, 0);" vertex="1" parent="_cRre706j1nTcXRoJ5YE-1">
          <mxGeometry x="169" y="1019" width="120" height="60" as="geometry" />
        </mxCell>
        <mxCell id="_cRre706j1nTcXRoJ5YE-9" value="Ware verfügbar" style="edgeStyle=orthogonalEdgeStyle;rounded=0;orthogonalLoop=1;jettySize=auto;html=1;" edge="1" parent="_cRre706j1nTcXRoJ5YE-1" target="_cRre706j1nTcXRoJ5YE-13">
          <mxGeometry x="-0.738" relative="1" as="geometry">
            <mxPoint x="342" y="246" as="sourcePoint" />
            <mxPoint x="196.00000000000045" y="772" as="targetPoint" />
            <mxPoint as="offset" />
          </mxGeometry>
        </mxCell>
        <mxCell id="_cRre706j1nTcXRoJ5YE-10" value="Ware nicht verfügbar" style="edgeStyle=orthogonalEdgeStyle;rounded=0;orthogonalLoop=1;jettySize=auto;html=1;entryX=0.517;entryY=-0.01;entryDx=0;entryDy=0;entryPerimeter=0;" edge="1" parent="_cRre706j1nTcXRoJ5YE-1" target="_cRre706j1nTcXRoJ5YE-15">
          <mxGeometry relative="1" as="geometry">
            <mxPoint x="422" y="246" as="sourcePoint" />
            <mxPoint x="640" y="240" as="targetPoint" />
          </mxGeometry>
        </mxCell>
        <mxCell id="_cRre706j1nTcXRoJ5YE-11" value="" style="rhombus;whiteSpace=wrap;html=1;fillColor=rgb(255, 255, 255);strokeColor=rgb(0, 0, 0);fontColor=rgb(0, 0, 0);rounded=1;" vertex="1" parent="_cRre706j1nTcXRoJ5YE-1">
          <mxGeometry x="341" y="206" width="80" height="80" as="geometry" />
        </mxCell>
        <mxCell id="_cRre706j1nTcXRoJ5YE-12" style="edgeStyle=orthogonalEdgeStyle;rounded=0;orthogonalLoop=1;jettySize=auto;html=1;entryX=0.75;entryY=0.5;entryDx=0;entryDy=0;entryPerimeter=0;" edge="1" parent="_cRre706j1nTcXRoJ5YE-1" source="_cRre706j1nTcXRoJ5YE-13" target="_cRre706j1nTcXRoJ5YE-36">
          <mxGeometry relative="1" as="geometry" />
        </mxCell>
        <mxCell id="_cRre706j1nTcXRoJ5YE-13" value="Ware verpacken" style="rounded=1;whiteSpace=wrap;html=1;fillColor=rgb(255, 255, 255);strokeColor=rgb(0, 0, 0);fontColor=rgb(0, 0, 0);" vertex="1" parent="_cRre706j1nTcXRoJ5YE-1">
          <mxGeometry x="130" y="861" width="120" height="58" as="geometry" />
        </mxCell>
        <mxCell id="BNhMeRUSgfJThRyjek1z-1" value="" style="edgeStyle=orthogonalEdgeStyle;rounded=0;orthogonalLoop=1;jettySize=auto;html=1;" edge="1" parent="_cRre706j1nTcXRoJ5YE-1" source="_cRre706j1nTcXRoJ5YE-15" target="BNhMeRUSgfJThRyjek1z-0">
          <mxGeometry relative="1" as="geometry" />
        </mxCell>
        <mxCell id="_cRre706j1nTcXRoJ5YE-15" value="Material aus Lager entnehmen" style="whiteSpace=wrap;html=1;fillColor=rgb(255, 255, 255);strokeColor=rgb(0, 0, 0);fontColor=rgb(0, 0, 0);rounded=1;" vertex="1" parent="_cRre706j1nTcXRoJ5YE-1">
          <mxGeometry x="550" y="286" width="120" height="60" as="geometry" />
        </mxCell>
        <mxCell id="_cRre706j1nTcXRoJ5YE-16" value="" style="edgeStyle=orthogonalEdgeStyle;rounded=0;orthogonalLoop=1;jettySize=auto;html=1;" edge="1" parent="_cRre706j1nTcXRoJ5YE-1" source="_cRre706j1nTcXRoJ5YE-17" target="_cRre706j1nTcXRoJ5YE-20">
          <mxGeometry relative="1" as="geometry" />
        </mxCell>
        <mxCell id="_cRre706j1nTcXRoJ5YE-17" value="Taschenlampe herstellen" style="whiteSpace=wrap;html=1;fillColor=rgb(255, 255, 255);strokeColor=rgb(0, 0, 0);fontColor=rgb(0, 0, 0);rounded=1;" vertex="1" parent="_cRre706j1nTcXRoJ5YE-1">
          <mxGeometry x="466" y="519" width="120" height="60" as="geometry" />
        </mxCell>
        <mxCell id="_cRre706j1nTcXRoJ5YE-18" value="Sonderanpassung&lt;br&gt;" style="edgeStyle=orthogonalEdgeStyle;rounded=0;orthogonalLoop=1;jettySize=auto;html=1;" edge="1" parent="_cRre706j1nTcXRoJ5YE-1" source="_cRre706j1nTcXRoJ5YE-20" target="_cRre706j1nTcXRoJ5YE-22">
          <mxGeometry x="-0.5" relative="1" as="geometry">
            <Array as="points">
              <mxPoint x="456" y="653" />
              <mxPoint x="456" y="653" />
            </Array>
            <mxPoint as="offset" />
          </mxGeometry>
        </mxCell>
        <mxCell id="_cRre706j1nTcXRoJ5YE-19" value="keine Sonderanpassung" style="edgeStyle=orthogonalEdgeStyle;rounded=0;orthogonalLoop=1;jettySize=auto;html=1;" edge="1" parent="_cRre706j1nTcXRoJ5YE-1" source="_cRre706j1nTcXRoJ5YE-20" target="_cRre706j1nTcXRoJ5YE-24">
          <mxGeometry x="-0.4222" relative="1" as="geometry">
            <mxPoint y="-1" as="offset" />
          </mxGeometry>
        </mxCell>
        <mxCell id="_cRre706j1nTcXRoJ5YE-20" value="" style="rhombus;whiteSpace=wrap;html=1;fillColor=rgb(255, 255, 255);strokeColor=rgb(0, 0, 0);fontColor=rgb(0, 0, 0);rounded=1;" vertex="1" parent="_cRre706j1nTcXRoJ5YE-1">
          <mxGeometry x="486" y="613" width="80" height="80" as="geometry" />
        </mxCell>
        <mxCell id="_cRre706j1nTcXRoJ5YE-21" style="edgeStyle=orthogonalEdgeStyle;rounded=0;orthogonalLoop=1;jettySize=auto;html=1;" edge="1" parent="_cRre706j1nTcXRoJ5YE-1" source="_cRre706j1nTcXRoJ5YE-22" target="_cRre706j1nTcXRoJ5YE-24">
          <mxGeometry relative="1" as="geometry" />
        </mxCell>
        <mxCell id="_cRre706j1nTcXRoJ5YE-22" value="Text gravieren" style="whiteSpace=wrap;html=1;fillColor=rgb(255, 255, 255);strokeColor=rgb(0, 0, 0);fontColor=rgb(0, 0, 0);rounded=1;" vertex="1" parent="_cRre706j1nTcXRoJ5YE-1">
          <mxGeometry x="285" y="753" width="120" height="60" as="geometry" />
        </mxCell>
        <mxCell id="_cRre706j1nTcXRoJ5YE-23" value="" style="edgeStyle=orthogonalEdgeStyle;rounded=0;orthogonalLoop=1;jettySize=auto;html=1;" edge="1" parent="_cRre706j1nTcXRoJ5YE-1" source="_cRre706j1nTcXRoJ5YE-24" target="_cRre706j1nTcXRoJ5YE-27">
          <mxGeometry relative="1" as="geometry">
            <mxPoint x="526" y="840" as="targetPoint" />
          </mxGeometry>
        </mxCell>
        <mxCell id="_cRre706j1nTcXRoJ5YE-24" value="Qualität prüfen" style="whiteSpace=wrap;html=1;fillColor=rgb(255, 255, 255);strokeColor=rgb(0, 0, 0);fontColor=rgb(0, 0, 0);rounded=1;" vertex="1" parent="_cRre706j1nTcXRoJ5YE-1">
          <mxGeometry x="466" y="753" width="120" height="60" as="geometry" />
        </mxCell>
        <mxCell id="_cRre706j1nTcXRoJ5YE-25" value="Ware nicht in Ordnung" style="edgeStyle=orthogonalEdgeStyle;rounded=0;orthogonalLoop=1;jettySize=auto;html=1;" edge="1" parent="_cRre706j1nTcXRoJ5YE-1" source="_cRre706j1nTcXRoJ5YE-27" target="_cRre706j1nTcXRoJ5YE-29">
          <mxGeometry x="-0.6296" relative="1" as="geometry">
            <mxPoint as="offset" />
          </mxGeometry>
        </mxCell>
        <mxCell id="_cRre706j1nTcXRoJ5YE-26" value="Ware in Ordnung" style="edgeStyle=orthogonalEdgeStyle;rounded=0;orthogonalLoop=1;jettySize=auto;html=1;entryX=1.009;entryY=0.5;entryDx=0;entryDy=0;entryPerimeter=0;" edge="1" parent="_cRre706j1nTcXRoJ5YE-1" source="_cRre706j1nTcXRoJ5YE-27" target="_cRre706j1nTcXRoJ5YE-13">
          <mxGeometry relative="1" as="geometry">
            <mxPoint x="260.03999999999996" y="901" as="targetPoint" />
          </mxGeometry>
        </mxCell>
        <mxCell id="_cRre706j1nTcXRoJ5YE-27" value="" style="rhombus;whiteSpace=wrap;html=1;fillColor=rgb(255, 255, 255);strokeColor=rgb(0, 0, 0);fontColor=rgb(0, 0, 0);rounded=1;" vertex="1" parent="_cRre706j1nTcXRoJ5YE-1">
          <mxGeometry x="486" y="861" width="80" height="80" as="geometry" />
        </mxCell>
        <mxCell id="ZG7Y3VzSa7FdePgh6wua-3" style="edgeStyle=orthogonalEdgeStyle;rounded=0;orthogonalLoop=1;jettySize=auto;html=1;" edge="1" parent="_cRre706j1nTcXRoJ5YE-1" source="_cRre706j1nTcXRoJ5YE-29">
          <mxGeometry relative="1" as="geometry">
            <mxPoint x="670" y="316" as="targetPoint" />
            <Array as="points">
              <mxPoint x="887" y="316" />
            </Array>
          </mxGeometry>
        </mxCell>
        <mxCell id="_cRre706j1nTcXRoJ5YE-29" value="Produkt verwerten" style="whiteSpace=wrap;html=1;fillColor=rgb(255, 255, 255);strokeColor=rgb(0, 0, 0);fontColor=rgb(0, 0, 0);rounded=1;" vertex="1" parent="_cRre706j1nTcXRoJ5YE-1">
          <mxGeometry x="827" y="669" width="120" height="60" as="geometry" />
        </mxCell>
        <mxCell id="_cRre706j1nTcXRoJ5YE-30" style="edgeStyle=orthogonalEdgeStyle;rounded=0;orthogonalLoop=1;jettySize=auto;html=1;exitX=0.25;exitY=0.5;exitDx=0;exitDy=0;exitPerimeter=0;" edge="1" parent="_cRre706j1nTcXRoJ5YE-1" source="_cRre706j1nTcXRoJ5YE-32" target="_cRre706j1nTcXRoJ5YE-34">
          <mxGeometry relative="1" as="geometry">
            <Array as="points">
              <mxPoint x="305" y="170" />
              <mxPoint x="10" y="170" />
            </Array>
          </mxGeometry>
        </mxCell>
        <mxCell id="_cRre706j1nTcXRoJ5YE-31" style="edgeStyle=orthogonalEdgeStyle;rounded=0;orthogonalLoop=1;jettySize=auto;html=1;entryX=0.5;entryY=0;entryDx=0;entryDy=0;" edge="1" parent="_cRre706j1nTcXRoJ5YE-1" source="_cRre706j1nTcXRoJ5YE-32" target="_cRre706j1nTcXRoJ5YE-11">
          <mxGeometry relative="1" as="geometry" />
        </mxCell>
        <mxCell id="_cRre706j1nTcXRoJ5YE-32" value="" style="shape=line;strokeWidth=6;strokeColor=#000000;rotation=0;" vertex="1" parent="_cRre706j1nTcXRoJ5YE-1">
          <mxGeometry x="270" y="140" width="140" height="15" as="geometry" />
        </mxCell>
        <mxCell id="_cRre706j1nTcXRoJ5YE-33" style="edgeStyle=orthogonalEdgeStyle;rounded=0;orthogonalLoop=1;jettySize=auto;html=1;entryX=0.25;entryY=0.5;entryDx=0;entryDy=0;entryPerimeter=0;" edge="1" parent="_cRre706j1nTcXRoJ5YE-1" source="_cRre706j1nTcXRoJ5YE-34" target="_cRre706j1nTcXRoJ5YE-36">
          <mxGeometry relative="1" as="geometry">
            <Array as="points">
              <mxPoint x="10" y="845" />
              <mxPoint x="100" y="845" />
            </Array>
          </mxGeometry>
        </mxCell>
        <mxCell id="_cRre706j1nTcXRoJ5YE-34" value="Rechnungsstellung" style="rounded=1;whiteSpace=wrap;html=1;fillColor=rgb(255, 255, 255);strokeColor=rgb(0, 0, 0);fontColor=rgb(0, 0, 0);" vertex="1" parent="_cRre706j1nTcXRoJ5YE-1">
          <mxGeometry x="-50" y="230" width="120" height="60" as="geometry" />
        </mxCell>
        <mxCell id="_cRre706j1nTcXRoJ5YE-35" style="edgeStyle=orthogonalEdgeStyle;rounded=0;orthogonalLoop=1;jettySize=auto;html=1;entryX=-0.01;entryY=0.458;entryDx=0;entryDy=0;entryPerimeter=0;" edge="1" parent="_cRre706j1nTcXRoJ5YE-1" source="_cRre706j1nTcXRoJ5YE-36" target="_cRre706j1nTcXRoJ5YE-8">
          <mxGeometry relative="1" as="geometry" />
        </mxCell>
        <mxCell id="_cRre706j1nTcXRoJ5YE-36" value="" style="shape=line;strokeWidth=6;strokeColor=#000000;rotation=0;" vertex="1" parent="_cRre706j1nTcXRoJ5YE-1">
          <mxGeometry x="65" y="969" width="140" height="50" as="geometry" />
        </mxCell>
        <mxCell id="BNhMeRUSgfJThRyjek1z-2" value="Verfügbar" style="edgeStyle=orthogonalEdgeStyle;rounded=0;orthogonalLoop=1;jettySize=auto;html=1;entryX=0.459;entryY=-0.044;entryDx=0;entryDy=0;entryPerimeter=0;" edge="1" parent="_cRre706j1nTcXRoJ5YE-1" source="BNhMeRUSgfJThRyjek1z-0" target="_cRre706j1nTcXRoJ5YE-17">
          <mxGeometry x="0.5599" relative="1" as="geometry">
            <Array as="points">
              <mxPoint x="610" y="450" />
              <mxPoint x="521" y="450" />
            </Array>
            <mxPoint as="offset" />
          </mxGeometry>
        </mxCell>
        <mxCell id="CkBDZwjJxRDP5qdXfjSt-6" value="nicht verfügbar" style="edgeStyle=orthogonalEdgeStyle;rounded=0;orthogonalLoop=1;jettySize=auto;html=1;exitX=0.5;exitY=1;exitDx=0;exitDy=0;entryX=0.013;entryY=0.549;entryDx=0;entryDy=0;entryPerimeter=0;" edge="1" parent="_cRre706j1nTcXRoJ5YE-1" source="BNhMeRUSgfJThRyjek1z-0" target="CkBDZwjJxRDP5qdXfjSt-7">
          <mxGeometry x="-0.0775" relative="1" as="geometry">
            <mxPoint x="667" y="510" as="targetPoint" />
            <mxPoint x="610" y="450" as="sourcePoint" />
            <Array as="points">
              <mxPoint x="610" y="450" />
              <mxPoint x="650" y="450" />
              <mxPoint x="650" y="552" />
            </Array>
            <mxPoint as="offset" />
          </mxGeometry>
        </mxCell>
        <mxCell id="BNhMeRUSgfJThRyjek1z-0" value="" style="rhombus;whiteSpace=wrap;html=1;fillColor=rgb(255, 255, 255);strokeColor=rgb(0, 0, 0);fontColor=rgb(0, 0, 0);rounded=1;" vertex="1" parent="_cRre706j1nTcXRoJ5YE-1">
          <mxGeometry x="580" y="360" width="60" height="60" as="geometry" />
        </mxCell>
        <mxCell id="CkBDZwjJxRDP5qdXfjSt-2" style="edgeStyle=orthogonalEdgeStyle;rounded=0;orthogonalLoop=1;jettySize=auto;html=1;entryX=0.994;entryY=0.409;entryDx=0;entryDy=0;entryPerimeter=0;" edge="1" parent="_cRre706j1nTcXRoJ5YE-1" source="CkBDZwjJxRDP5qdXfjSt-0" target="_cRre706j1nTcXRoJ5YE-6">
          <mxGeometry relative="1" as="geometry" />
        </mxCell>
        <mxCell id="CkBDZwjJxRDP5qdXfjSt-0" value="Bestellsystem" style="shape=note;whiteSpace=wrap;size=14;" vertex="1" parent="_cRre706j1nTcXRoJ5YE-1">
          <mxGeometry x="466" y="55" width="100" height="50" as="geometry" />
        </mxCell>
        <mxCell id="CkBDZwjJxRDP5qdXfjSt-8" style="edgeStyle=orthogonalEdgeStyle;rounded=0;orthogonalLoop=1;jettySize=auto;html=1;entryX=0;entryY=0;entryDx=100;entryDy=25;entryPerimeter=0;" edge="1" parent="_cRre706j1nTcXRoJ5YE-1" source="CkBDZwjJxRDP5qdXfjSt-7" target="CkBDZwjJxRDP5qdXfjSt-0">
          <mxGeometry relative="1" as="geometry">
            <Array as="points">
              <mxPoint x="730" y="80" />
            </Array>
          </mxGeometry>
        </mxCell>
        <mxCell id="CkBDZwjJxRDP5qdXfjSt-7" value="Material bestellen" style="whiteSpace=wrap;html=1;fillColor=rgb(255, 255, 255);strokeColor=rgb(0, 0, 0);fontColor=rgb(0, 0, 0);rounded=1;" vertex="1" parent="_cRre706j1nTcXRoJ5YE-1">
          <mxGeometry x="670" y="519" width="120" height="60" as="geometry" />
        </mxCell>
        <mxCell id="ZG7Y3VzSa7FdePgh6wua-2" style="edgeStyle=orthogonalEdgeStyle;rounded=0;orthogonalLoop=1;jettySize=auto;html=1;entryX=0.002;entryY=0.504;entryDx=0;entryDy=0;entryPerimeter=0;" edge="1" parent="_cRre706j1nTcXRoJ5YE-1" source="ZG7Y3VzSa7FdePgh6wua-0" target="_cRre706j1nTcXRoJ5YE-22">
          <mxGeometry relative="1" as="geometry" />
        </mxCell>
        <mxCell id="ZG7Y3VzSa7FdePgh6wua-0" value="Gravurmaschine" style="shape=note;whiteSpace=wrap;size=14;" vertex="1" parent="_cRre706j1nTcXRoJ5YE-1">
          <mxGeometry x="205" y="693" width="100" height="50" as="geometry" />
        </mxCell>
        <mxCell id="ZG7Y3VzSa7FdePgh6wua-8" style="edgeStyle=orthogonalEdgeStyle;rounded=0;orthogonalLoop=1;jettySize=auto;html=1;entryX=0.999;entryY=0.518;entryDx=0;entryDy=0;entryPerimeter=0;" edge="1" parent="_cRre706j1nTcXRoJ5YE-1" source="ZG7Y3VzSa7FdePgh6wua-4" target="_cRre706j1nTcXRoJ5YE-24">
          <mxGeometry relative="1" as="geometry" />
        </mxCell>
        <mxCell id="ZG7Y3VzSa7FdePgh6wua-4" value="Kamera" style="shape=note;whiteSpace=wrap;size=14;" vertex="1" parent="_cRre706j1nTcXRoJ5YE-1">
          <mxGeometry x="620" y="710" width="100" height="50" as="geometry" />
        </mxCell>
        <mxCell id="ZG7Y3VzSa7FdePgh6wua-7" style="edgeStyle=orthogonalEdgeStyle;rounded=0;orthogonalLoop=1;jettySize=auto;html=1;entryX=1.065;entryY=0.562;entryDx=0;entryDy=0;entryPerimeter=0;" edge="1" parent="_cRre706j1nTcXRoJ5YE-1" source="ZG7Y3VzSa7FdePgh6wua-6" target="_cRre706j1nTcXRoJ5YE-24">
          <mxGeometry relative="1" as="geometry" />
        </mxCell>
        <mxCell id="ZG7Y3VzSa7FdePgh6wua-6" value="Luxmeter" style="shape=note;whiteSpace=wrap;size=14;" vertex="1" parent="_cRre706j1nTcXRoJ5YE-1">
          <mxGeometry x="630" y="790" width="100" height="50" as="geometry" />
        </mxCell>
        <mxCell id="ZG7Y3VzSa7FdePgh6wua-10" style="edgeStyle=orthogonalEdgeStyle;rounded=0;orthogonalLoop=1;jettySize=auto;html=1;entryX=0.017;entryY=0.462;entryDx=0;entryDy=0;entryPerimeter=0;" edge="1" parent="_cRre706j1nTcXRoJ5YE-1" source="ZG7Y3VzSa7FdePgh6wua-9" target="_cRre706j1nTcXRoJ5YE-17">
          <mxGeometry relative="1" as="geometry" />
        </mxCell>
        <mxCell id="ZG7Y3VzSa7FdePgh6wua-9" value="Fertigungsanlage" style="shape=note;whiteSpace=wrap;size=14;" vertex="1" parent="_cRre706j1nTcXRoJ5YE-1">
          <mxGeometry x="285" y="510" width="100" height="50" as="geometry" />
        </mxCell>
      </root>
    </mxGraphModel>
  </diagram>
  <diagram name="Kopie von Kopie von Seite-2" id="lV3_RGQlktBmBGKAEV2i">
    <mxGraphModel dx="2547" dy="518" grid="1" gridSize="10" guides="1" tooltips="1" connect="1" arrows="1" fold="1" page="1" pageScale="1" pageWidth="827" pageHeight="1169" math="0" shadow="0">
      <root>
        <mxCell id="aTnS28qWWTl0Lpd-C4bZ-0" />
        <mxCell id="aTnS28qWWTl0Lpd-C4bZ-1" parent="aTnS28qWWTl0Lpd-C4bZ-0" />
        <mxCell id="aTnS28qWWTl0Lpd-C4bZ-2" value="" style="ellipse;html=1;shape=endState;fillColor=#000000;strokeColor=#ff0000;" vertex="1" parent="aTnS28qWWTl0Lpd-C4bZ-1">
          <mxGeometry x="376" y="1034" width="30" height="30" as="geometry" />
        </mxCell>
        <mxCell id="aTnS28qWWTl0Lpd-C4bZ-3" value="" style="edgeStyle=orthogonalEdgeStyle;rounded=0;orthogonalLoop=1;jettySize=auto;html=1;" edge="1" parent="aTnS28qWWTl0Lpd-C4bZ-1" source="aTnS28qWWTl0Lpd-C4bZ-4" target="aTnS28qWWTl0Lpd-C4bZ-6">
          <mxGeometry relative="1" as="geometry">
            <mxPoint x="275" y="85" as="targetPoint" />
          </mxGeometry>
        </mxCell>
        <mxCell id="aTnS28qWWTl0Lpd-C4bZ-4" value="" style="ellipse;shape=startState;fillColor=#000000;strokeColor=#ff0000;" vertex="1" parent="aTnS28qWWTl0Lpd-C4bZ-1">
          <mxGeometry x="90" y="70" width="30" height="30" as="geometry" />
        </mxCell>
        <mxCell id="aTnS28qWWTl0Lpd-C4bZ-5" style="edgeStyle=orthogonalEdgeStyle;rounded=0;orthogonalLoop=1;jettySize=auto;html=1;entryX=0.471;entryY=0.667;entryDx=0;entryDy=0;entryPerimeter=0;" edge="1" parent="aTnS28qWWTl0Lpd-C4bZ-1" source="aTnS28qWWTl0Lpd-C4bZ-6" target="aTnS28qWWTl0Lpd-C4bZ-32">
          <mxGeometry relative="1" as="geometry" />
        </mxCell>
        <mxCell id="aTnS28qWWTl0Lpd-C4bZ-6" value="Kundenauftrag" style="rounded=1;whiteSpace=wrap;html=1;" vertex="1" parent="aTnS28qWWTl0Lpd-C4bZ-1">
          <mxGeometry x="276" y="55" width="120" height="60" as="geometry" />
        </mxCell>
        <mxCell id="aTnS28qWWTl0Lpd-C4bZ-7" style="edgeStyle=orthogonalEdgeStyle;rounded=0;orthogonalLoop=1;jettySize=auto;html=1;entryX=0;entryY=0.5;entryDx=0;entryDy=0;" edge="1" parent="aTnS28qWWTl0Lpd-C4bZ-1" source="aTnS28qWWTl0Lpd-C4bZ-8" target="aTnS28qWWTl0Lpd-C4bZ-2">
          <mxGeometry relative="1" as="geometry" />
        </mxCell>
        <mxCell id="aTnS28qWWTl0Lpd-C4bZ-8" value="Ware versenden" style="rounded=1;whiteSpace=wrap;html=1;fillColor=rgb(255, 255, 255);strokeColor=rgb(0, 0, 0);fontColor=rgb(0, 0, 0);" vertex="1" parent="aTnS28qWWTl0Lpd-C4bZ-1">
          <mxGeometry x="169" y="1019" width="120" height="60" as="geometry" />
        </mxCell>
        <mxCell id="aTnS28qWWTl0Lpd-C4bZ-9" value="Ware verfügbar" style="edgeStyle=orthogonalEdgeStyle;rounded=0;orthogonalLoop=1;jettySize=auto;html=1;" edge="1" parent="aTnS28qWWTl0Lpd-C4bZ-1" target="aTnS28qWWTl0Lpd-C4bZ-13">
          <mxGeometry x="-0.738" relative="1" as="geometry">
            <mxPoint x="342" y="246" as="sourcePoint" />
            <mxPoint x="196.00000000000045" y="772" as="targetPoint" />
            <mxPoint as="offset" />
          </mxGeometry>
        </mxCell>
        <mxCell id="aTnS28qWWTl0Lpd-C4bZ-10" value="Ware nicht verfügbar" style="edgeStyle=orthogonalEdgeStyle;rounded=0;orthogonalLoop=1;jettySize=auto;html=1;entryX=0.517;entryY=-0.01;entryDx=0;entryDy=0;entryPerimeter=0;" edge="1" parent="aTnS28qWWTl0Lpd-C4bZ-1" target="aTnS28qWWTl0Lpd-C4bZ-15">
          <mxGeometry relative="1" as="geometry">
            <mxPoint x="422" y="246" as="sourcePoint" />
            <mxPoint x="640" y="240" as="targetPoint" />
          </mxGeometry>
        </mxCell>
        <mxCell id="aTnS28qWWTl0Lpd-C4bZ-11" value="" style="rhombus;whiteSpace=wrap;html=1;fillColor=rgb(255, 255, 255);strokeColor=rgb(0, 0, 0);fontColor=rgb(0, 0, 0);rounded=1;" vertex="1" parent="aTnS28qWWTl0Lpd-C4bZ-1">
          <mxGeometry x="341" y="206" width="80" height="80" as="geometry" />
        </mxCell>
        <mxCell id="aTnS28qWWTl0Lpd-C4bZ-12" style="edgeStyle=orthogonalEdgeStyle;rounded=0;orthogonalLoop=1;jettySize=auto;html=1;entryX=0.75;entryY=0.5;entryDx=0;entryDy=0;entryPerimeter=0;" edge="1" parent="aTnS28qWWTl0Lpd-C4bZ-1" source="aTnS28qWWTl0Lpd-C4bZ-13" target="aTnS28qWWTl0Lpd-C4bZ-36">
          <mxGeometry relative="1" as="geometry" />
        </mxCell>
        <mxCell id="aTnS28qWWTl0Lpd-C4bZ-13" value="Ware verpacken" style="rounded=1;whiteSpace=wrap;html=1;fillColor=rgb(255, 255, 255);strokeColor=rgb(0, 0, 0);fontColor=rgb(0, 0, 0);" vertex="1" parent="aTnS28qWWTl0Lpd-C4bZ-1">
          <mxGeometry x="130" y="861" width="120" height="58" as="geometry" />
        </mxCell>
        <mxCell id="aTnS28qWWTl0Lpd-C4bZ-14" value="" style="edgeStyle=orthogonalEdgeStyle;rounded=0;orthogonalLoop=1;jettySize=auto;html=1;" edge="1" parent="aTnS28qWWTl0Lpd-C4bZ-1" source="aTnS28qWWTl0Lpd-C4bZ-15" target="aTnS28qWWTl0Lpd-C4bZ-39">
          <mxGeometry relative="1" as="geometry" />
        </mxCell>
        <mxCell id="aTnS28qWWTl0Lpd-C4bZ-15" value="Material aus Lager entnehmen" style="whiteSpace=wrap;html=1;fillColor=rgb(255, 255, 255);strokeColor=rgb(0, 0, 0);fontColor=rgb(0, 0, 0);rounded=1;" vertex="1" parent="aTnS28qWWTl0Lpd-C4bZ-1">
          <mxGeometry x="550" y="286" width="120" height="60" as="geometry" />
        </mxCell>
        <mxCell id="aTnS28qWWTl0Lpd-C4bZ-16" value="" style="edgeStyle=orthogonalEdgeStyle;rounded=0;orthogonalLoop=1;jettySize=auto;html=1;" edge="1" parent="aTnS28qWWTl0Lpd-C4bZ-1" source="aTnS28qWWTl0Lpd-C4bZ-17" target="aTnS28qWWTl0Lpd-C4bZ-20">
          <mxGeometry relative="1" as="geometry" />
        </mxCell>
        <mxCell id="aTnS28qWWTl0Lpd-C4bZ-17" value="Taschenlampe herstellen" style="whiteSpace=wrap;html=1;fillColor=rgb(255, 255, 255);strokeColor=rgb(0, 0, 0);fontColor=rgb(0, 0, 0);rounded=1;" vertex="1" parent="aTnS28qWWTl0Lpd-C4bZ-1">
          <mxGeometry x="466" y="519" width="120" height="60" as="geometry" />
        </mxCell>
        <mxCell id="aTnS28qWWTl0Lpd-C4bZ-18" value="Sonderanpassung&lt;br&gt;" style="edgeStyle=orthogonalEdgeStyle;rounded=0;orthogonalLoop=1;jettySize=auto;html=1;" edge="1" parent="aTnS28qWWTl0Lpd-C4bZ-1" source="aTnS28qWWTl0Lpd-C4bZ-20" target="aTnS28qWWTl0Lpd-C4bZ-22">
          <mxGeometry x="-0.5" relative="1" as="geometry">
            <Array as="points">
              <mxPoint x="456" y="653" />
              <mxPoint x="456" y="653" />
            </Array>
            <mxPoint as="offset" />
          </mxGeometry>
        </mxCell>
        <mxCell id="aTnS28qWWTl0Lpd-C4bZ-19" value="keine Sonderanpassung" style="edgeStyle=orthogonalEdgeStyle;rounded=0;orthogonalLoop=1;jettySize=auto;html=1;" edge="1" parent="aTnS28qWWTl0Lpd-C4bZ-1" source="aTnS28qWWTl0Lpd-C4bZ-20" target="aTnS28qWWTl0Lpd-C4bZ-24">
          <mxGeometry x="-0.4222" relative="1" as="geometry">
            <mxPoint y="-1" as="offset" />
          </mxGeometry>
        </mxCell>
        <mxCell id="aTnS28qWWTl0Lpd-C4bZ-20" value="" style="rhombus;whiteSpace=wrap;html=1;fillColor=rgb(255, 255, 255);strokeColor=rgb(0, 0, 0);fontColor=rgb(0, 0, 0);rounded=1;" vertex="1" parent="aTnS28qWWTl0Lpd-C4bZ-1">
          <mxGeometry x="486" y="613" width="80" height="80" as="geometry" />
        </mxCell>
        <mxCell id="aTnS28qWWTl0Lpd-C4bZ-21" style="edgeStyle=orthogonalEdgeStyle;rounded=0;orthogonalLoop=1;jettySize=auto;html=1;" edge="1" parent="aTnS28qWWTl0Lpd-C4bZ-1" source="aTnS28qWWTl0Lpd-C4bZ-22" target="aTnS28qWWTl0Lpd-C4bZ-24">
          <mxGeometry relative="1" as="geometry" />
        </mxCell>
        <mxCell id="aTnS28qWWTl0Lpd-C4bZ-22" value="Text gravieren" style="whiteSpace=wrap;html=1;fillColor=rgb(255, 255, 255);strokeColor=rgb(0, 0, 0);fontColor=rgb(0, 0, 0);rounded=1;" vertex="1" parent="aTnS28qWWTl0Lpd-C4bZ-1">
          <mxGeometry x="285" y="753" width="120" height="60" as="geometry" />
        </mxCell>
        <mxCell id="aTnS28qWWTl0Lpd-C4bZ-23" value="" style="edgeStyle=orthogonalEdgeStyle;rounded=0;orthogonalLoop=1;jettySize=auto;html=1;" edge="1" parent="aTnS28qWWTl0Lpd-C4bZ-1" source="aTnS28qWWTl0Lpd-C4bZ-24" target="aTnS28qWWTl0Lpd-C4bZ-27">
          <mxGeometry relative="1" as="geometry">
            <mxPoint x="526" y="840" as="targetPoint" />
          </mxGeometry>
        </mxCell>
        <mxCell id="aTnS28qWWTl0Lpd-C4bZ-24" value="Qualität prüfen" style="whiteSpace=wrap;html=1;fillColor=rgb(255, 255, 255);strokeColor=rgb(0, 0, 0);fontColor=rgb(0, 0, 0);rounded=1;" vertex="1" parent="aTnS28qWWTl0Lpd-C4bZ-1">
          <mxGeometry x="466" y="753" width="120" height="60" as="geometry" />
        </mxCell>
        <mxCell id="aTnS28qWWTl0Lpd-C4bZ-25" value="Ware nicht in Ordnung" style="edgeStyle=orthogonalEdgeStyle;rounded=0;orthogonalLoop=1;jettySize=auto;html=1;" edge="1" parent="aTnS28qWWTl0Lpd-C4bZ-1" source="aTnS28qWWTl0Lpd-C4bZ-27" target="aTnS28qWWTl0Lpd-C4bZ-29">
          <mxGeometry x="-0.6296" relative="1" as="geometry">
            <mxPoint as="offset" />
          </mxGeometry>
        </mxCell>
        <mxCell id="aTnS28qWWTl0Lpd-C4bZ-26" value="Ware in Ordnung" style="edgeStyle=orthogonalEdgeStyle;rounded=0;orthogonalLoop=1;jettySize=auto;html=1;entryX=1.009;entryY=0.5;entryDx=0;entryDy=0;entryPerimeter=0;" edge="1" parent="aTnS28qWWTl0Lpd-C4bZ-1" source="aTnS28qWWTl0Lpd-C4bZ-27" target="aTnS28qWWTl0Lpd-C4bZ-13">
          <mxGeometry relative="1" as="geometry">
            <mxPoint x="260.03999999999996" y="901" as="targetPoint" />
          </mxGeometry>
        </mxCell>
        <mxCell id="aTnS28qWWTl0Lpd-C4bZ-27" value="" style="rhombus;whiteSpace=wrap;html=1;fillColor=rgb(255, 255, 255);strokeColor=rgb(0, 0, 0);fontColor=rgb(0, 0, 0);rounded=1;" vertex="1" parent="aTnS28qWWTl0Lpd-C4bZ-1">
          <mxGeometry x="486" y="861" width="80" height="80" as="geometry" />
        </mxCell>
        <mxCell id="aTnS28qWWTl0Lpd-C4bZ-28" style="edgeStyle=orthogonalEdgeStyle;rounded=0;orthogonalLoop=1;jettySize=auto;html=1;" edge="1" parent="aTnS28qWWTl0Lpd-C4bZ-1" source="aTnS28qWWTl0Lpd-C4bZ-29">
          <mxGeometry relative="1" as="geometry">
            <mxPoint x="670" y="316" as="targetPoint" />
            <Array as="points">
              <mxPoint x="887" y="316" />
            </Array>
          </mxGeometry>
        </mxCell>
        <mxCell id="aTnS28qWWTl0Lpd-C4bZ-29" value="Produkt verwerten" style="whiteSpace=wrap;html=1;fillColor=rgb(255, 255, 255);strokeColor=rgb(0, 0, 0);fontColor=rgb(0, 0, 0);rounded=1;" vertex="1" parent="aTnS28qWWTl0Lpd-C4bZ-1">
          <mxGeometry x="827" y="669" width="120" height="60" as="geometry" />
        </mxCell>
        <mxCell id="aTnS28qWWTl0Lpd-C4bZ-30" style="edgeStyle=orthogonalEdgeStyle;rounded=0;orthogonalLoop=1;jettySize=auto;html=1;exitX=0.25;exitY=0.5;exitDx=0;exitDy=0;exitPerimeter=0;" edge="1" parent="aTnS28qWWTl0Lpd-C4bZ-1" source="aTnS28qWWTl0Lpd-C4bZ-32" target="aTnS28qWWTl0Lpd-C4bZ-34">
          <mxGeometry relative="1" as="geometry">
            <Array as="points">
              <mxPoint x="305" y="170" />
              <mxPoint x="10" y="170" />
            </Array>
          </mxGeometry>
        </mxCell>
        <mxCell id="aTnS28qWWTl0Lpd-C4bZ-31" style="edgeStyle=orthogonalEdgeStyle;rounded=0;orthogonalLoop=1;jettySize=auto;html=1;entryX=0.5;entryY=0;entryDx=0;entryDy=0;" edge="1" parent="aTnS28qWWTl0Lpd-C4bZ-1" source="aTnS28qWWTl0Lpd-C4bZ-32" target="aTnS28qWWTl0Lpd-C4bZ-11">
          <mxGeometry relative="1" as="geometry" />
        </mxCell>
        <mxCell id="aTnS28qWWTl0Lpd-C4bZ-32" value="" style="shape=line;strokeWidth=6;strokeColor=#000000;rotation=0;" vertex="1" parent="aTnS28qWWTl0Lpd-C4bZ-1">
          <mxGeometry x="270" y="140" width="140" height="15" as="geometry" />
        </mxCell>
        <mxCell id="aTnS28qWWTl0Lpd-C4bZ-33" style="edgeStyle=orthogonalEdgeStyle;rounded=0;orthogonalLoop=1;jettySize=auto;html=1;entryX=0.25;entryY=0.5;entryDx=0;entryDy=0;entryPerimeter=0;" edge="1" parent="aTnS28qWWTl0Lpd-C4bZ-1" source="aTnS28qWWTl0Lpd-C4bZ-34" target="aTnS28qWWTl0Lpd-C4bZ-36">
          <mxGeometry relative="1" as="geometry">
            <Array as="points">
              <mxPoint x="10" y="845" />
              <mxPoint x="100" y="845" />
            </Array>
          </mxGeometry>
        </mxCell>
        <mxCell id="aTnS28qWWTl0Lpd-C4bZ-34" value="Rechnungsstellung" style="rounded=1;whiteSpace=wrap;html=1;fillColor=rgb(255, 255, 255);strokeColor=rgb(0, 0, 0);fontColor=rgb(0, 0, 0);" vertex="1" parent="aTnS28qWWTl0Lpd-C4bZ-1">
          <mxGeometry x="-50" y="230" width="120" height="60" as="geometry" />
        </mxCell>
        <mxCell id="aTnS28qWWTl0Lpd-C4bZ-35" style="edgeStyle=orthogonalEdgeStyle;rounded=0;orthogonalLoop=1;jettySize=auto;html=1;entryX=-0.01;entryY=0.458;entryDx=0;entryDy=0;entryPerimeter=0;" edge="1" parent="aTnS28qWWTl0Lpd-C4bZ-1" source="aTnS28qWWTl0Lpd-C4bZ-36" target="aTnS28qWWTl0Lpd-C4bZ-8">
          <mxGeometry relative="1" as="geometry" />
        </mxCell>
        <mxCell id="aTnS28qWWTl0Lpd-C4bZ-36" value="" style="shape=line;strokeWidth=6;strokeColor=#000000;rotation=0;" vertex="1" parent="aTnS28qWWTl0Lpd-C4bZ-1">
          <mxGeometry x="65" y="969" width="140" height="50" as="geometry" />
        </mxCell>
        <mxCell id="aTnS28qWWTl0Lpd-C4bZ-37" value="Verfügbar" style="edgeStyle=orthogonalEdgeStyle;rounded=0;orthogonalLoop=1;jettySize=auto;html=1;entryX=0.459;entryY=-0.044;entryDx=0;entryDy=0;entryPerimeter=0;" edge="1" parent="aTnS28qWWTl0Lpd-C4bZ-1" source="aTnS28qWWTl0Lpd-C4bZ-39" target="aTnS28qWWTl0Lpd-C4bZ-17">
          <mxGeometry x="0.5599" relative="1" as="geometry">
            <Array as="points">
              <mxPoint x="610" y="450" />
              <mxPoint x="521" y="450" />
            </Array>
            <mxPoint as="offset" />
          </mxGeometry>
        </mxCell>
        <mxCell id="aTnS28qWWTl0Lpd-C4bZ-38" value="nicht verfügbar" style="edgeStyle=orthogonalEdgeStyle;rounded=0;orthogonalLoop=1;jettySize=auto;html=1;exitX=0.5;exitY=1;exitDx=0;exitDy=0;entryX=0.013;entryY=0.549;entryDx=0;entryDy=0;entryPerimeter=0;" edge="1" parent="aTnS28qWWTl0Lpd-C4bZ-1" source="aTnS28qWWTl0Lpd-C4bZ-39" target="aTnS28qWWTl0Lpd-C4bZ-43">
          <mxGeometry x="-0.0775" relative="1" as="geometry">
            <mxPoint x="667" y="510" as="targetPoint" />
            <mxPoint x="610" y="450" as="sourcePoint" />
            <Array as="points">
              <mxPoint x="610" y="450" />
              <mxPoint x="650" y="450" />
              <mxPoint x="650" y="552" />
            </Array>
            <mxPoint as="offset" />
          </mxGeometry>
        </mxCell>
        <mxCell id="aTnS28qWWTl0Lpd-C4bZ-39" value="" style="rhombus;whiteSpace=wrap;html=1;fillColor=rgb(255, 255, 255);strokeColor=rgb(0, 0, 0);fontColor=rgb(0, 0, 0);rounded=1;" vertex="1" parent="aTnS28qWWTl0Lpd-C4bZ-1">
          <mxGeometry x="580" y="360" width="60" height="60" as="geometry" />
        </mxCell>
        <mxCell id="aTnS28qWWTl0Lpd-C4bZ-40" style="edgeStyle=orthogonalEdgeStyle;rounded=0;orthogonalLoop=1;jettySize=auto;html=1;entryX=0.994;entryY=0.409;entryDx=0;entryDy=0;entryPerimeter=0;" edge="1" parent="aTnS28qWWTl0Lpd-C4bZ-1" source="aTnS28qWWTl0Lpd-C4bZ-41" target="aTnS28qWWTl0Lpd-C4bZ-6">
          <mxGeometry relative="1" as="geometry" />
        </mxCell>
        <mxCell id="aTnS28qWWTl0Lpd-C4bZ-41" value="Bestellsystem" style="shape=note;whiteSpace=wrap;size=14;" vertex="1" parent="aTnS28qWWTl0Lpd-C4bZ-1">
          <mxGeometry x="466" y="55" width="100" height="50" as="geometry" />
        </mxCell>
        <mxCell id="aTnS28qWWTl0Lpd-C4bZ-42" style="edgeStyle=orthogonalEdgeStyle;rounded=0;orthogonalLoop=1;jettySize=auto;html=1;entryX=0;entryY=0;entryDx=100;entryDy=25;entryPerimeter=0;" edge="1" parent="aTnS28qWWTl0Lpd-C4bZ-1" source="aTnS28qWWTl0Lpd-C4bZ-43" target="aTnS28qWWTl0Lpd-C4bZ-41">
          <mxGeometry relative="1" as="geometry">
            <Array as="points">
              <mxPoint x="730" y="80" />
            </Array>
          </mxGeometry>
        </mxCell>
        <mxCell id="aTnS28qWWTl0Lpd-C4bZ-43" value="Material bestellen" style="whiteSpace=wrap;html=1;fillColor=rgb(255, 255, 255);strokeColor=rgb(0, 0, 0);fontColor=rgb(0, 0, 0);rounded=1;" vertex="1" parent="aTnS28qWWTl0Lpd-C4bZ-1">
          <mxGeometry x="670" y="519" width="120" height="60" as="geometry" />
        </mxCell>
        <mxCell id="aTnS28qWWTl0Lpd-C4bZ-44" style="edgeStyle=orthogonalEdgeStyle;rounded=0;orthogonalLoop=1;jettySize=auto;html=1;entryX=0.002;entryY=0.504;entryDx=0;entryDy=0;entryPerimeter=0;" edge="1" parent="aTnS28qWWTl0Lpd-C4bZ-1" source="aTnS28qWWTl0Lpd-C4bZ-45" target="aTnS28qWWTl0Lpd-C4bZ-22">
          <mxGeometry relative="1" as="geometry" />
        </mxCell>
        <mxCell id="aTnS28qWWTl0Lpd-C4bZ-45" value="Gravurmaschine" style="shape=note;whiteSpace=wrap;size=14;" vertex="1" parent="aTnS28qWWTl0Lpd-C4bZ-1">
          <mxGeometry x="205" y="693" width="100" height="50" as="geometry" />
        </mxCell>
        <mxCell id="aTnS28qWWTl0Lpd-C4bZ-46" style="edgeStyle=orthogonalEdgeStyle;rounded=0;orthogonalLoop=1;jettySize=auto;html=1;entryX=0.999;entryY=0.518;entryDx=0;entryDy=0;entryPerimeter=0;" edge="1" parent="aTnS28qWWTl0Lpd-C4bZ-1" source="aTnS28qWWTl0Lpd-C4bZ-47" target="aTnS28qWWTl0Lpd-C4bZ-24">
          <mxGeometry relative="1" as="geometry" />
        </mxCell>
        <mxCell id="aTnS28qWWTl0Lpd-C4bZ-47" value="Kamera" style="shape=note;whiteSpace=wrap;size=14;" vertex="1" parent="aTnS28qWWTl0Lpd-C4bZ-1">
          <mxGeometry x="620" y="710" width="100" height="50" as="geometry" />
        </mxCell>
        <mxCell id="aTnS28qWWTl0Lpd-C4bZ-48" style="edgeStyle=orthogonalEdgeStyle;rounded=0;orthogonalLoop=1;jettySize=auto;html=1;entryX=1.065;entryY=0.562;entryDx=0;entryDy=0;entryPerimeter=0;" edge="1" parent="aTnS28qWWTl0Lpd-C4bZ-1" source="aTnS28qWWTl0Lpd-C4bZ-49" target="aTnS28qWWTl0Lpd-C4bZ-24">
          <mxGeometry relative="1" as="geometry" />
        </mxCell>
        <mxCell id="aTnS28qWWTl0Lpd-C4bZ-49" value="Luxmeter" style="shape=note;whiteSpace=wrap;size=14;" vertex="1" parent="aTnS28qWWTl0Lpd-C4bZ-1">
          <mxGeometry x="630" y="790" width="100" height="50" as="geometry" />
        </mxCell>
        <mxCell id="aTnS28qWWTl0Lpd-C4bZ-50" style="edgeStyle=orthogonalEdgeStyle;rounded=0;orthogonalLoop=1;jettySize=auto;html=1;entryX=0.017;entryY=0.462;entryDx=0;entryDy=0;entryPerimeter=0;" edge="1" parent="aTnS28qWWTl0Lpd-C4bZ-1" source="aTnS28qWWTl0Lpd-C4bZ-51" target="aTnS28qWWTl0Lpd-C4bZ-17">
          <mxGeometry relative="1" as="geometry" />
        </mxCell>
        <mxCell id="aTnS28qWWTl0Lpd-C4bZ-51" value="Fertigungsanlage" style="shape=note;whiteSpace=wrap;size=14;" vertex="1" parent="aTnS28qWWTl0Lpd-C4bZ-1">
          <mxGeometry x="285" y="510" width="100" height="50" as="geometry" />
        </mxCell>
      </root>
    </mxGraphModel>
  </diagram>
</mxfile>
